<?xml version="1.0" encoding="UTF-8"?>
<svg width="28px" height="28px" viewBox="0 0 28 28" version="1.1" xmlns="http://www.w3.org/2000/svg" xmlns:xlink="http://www.w3.org/1999/xlink">
    <title>notice_icon</title>
    <g id="页面-1" stroke="none" stroke-width="1" fill="none" fill-rule="evenodd" >
        <g id="6.设置" transform="translate(-1860.000000, -32.000000)">
            <g id="notice_icon" transform="translate(1860.000000, 32.000000)">
                <rect id="矩形" fill="#D8D8D8" opacity="0" x="0" y="0" width="28" height="28"></rect>
                <path d="M23.549016,19.421 C22.330016,17.991 22.038016,16.222 22.038016,11.507 C22.038016,7.647 19.045016,5.078 15.999016,4.273 L15.999016,4 C15.999016,2.895 15.104016,2 13.999016,2 C12.895016,2 11.999016,2.895 11.999016,4 L11.999016,4.273 C8.954016,5.079 5.961016,7.647 5.961016,11.507 C5.961016,16.222 5.669016,17.991 4.451016,19.421 C2.946016,21.186 5.215016,23.352 11.146016,23.879 C11.524016,25.104 12.651016,26 14.000016,26 C15.349016,26 16.476016,25.104 16.854016,23.879 C22.784016,23.352 25.054016,21.186 23.549016,19.421" id="Fill-1" fill="#FFFFFF"></path>
            </g>
        </g>
    </g>
</svg>